<svg width="25" height="25" viewBox="0 0 25 25" fill="none" xmlns="http://www.w3.org/2000/svg">
<path d="M17.598 20.78C16.618 21.73 15.548 21.58 14.518 21.13C13.428 20.67 12.428 20.65 11.278 21.13C9.83802 21.75 9.07802 21.57 8.21802 20.78C3.33802 15.75 4.05802 8.09 9.59802 7.81C10.948 7.88 11.888 8.55 12.678 8.61C13.858 8.37 14.988 7.68 16.248 7.77C17.758 7.89 18.898 8.49 19.648 9.57C16.528 11.44 17.268 15.55 20.128 16.7C19.558 18.2 18.818 19.69 17.588 20.79L17.598 20.78ZM12.578 7.75C12.428 5.52 14.238 3.68 16.318 3.5C16.608 6.08 13.978 8 12.578 7.75Z" fill="black"/>
</svg>
