<svg width="25" height="25" viewBox="0 0 25 25" fill="none" xmlns="http://www.w3.org/2000/svg">
<path d="M22.3524 10.5415H21.5469V10.5H12.5469V14.5H18.1984C17.3739 16.8285 15.1584 18.5 12.5469 18.5C9.23338 18.5 6.54688 15.8135 6.54688 12.5C6.54688 9.1865 9.23338 6.5 12.5469 6.5C14.0764 6.5 15.4679 7.077 16.5274 8.0195L19.3559 5.191C17.5699 3.5265 15.1809 2.5 12.5469 2.5C7.02437 2.5 2.54688 6.9775 2.54688 12.5C2.54688 18.0225 7.02437 22.5 12.5469 22.5C18.0694 22.5 22.5469 18.0225 22.5469 12.5C22.5469 11.8295 22.4779 11.175 22.3524 10.5415Z" fill="#FFC107"/>
<path d="M3.70312 7.8455L6.98862 10.255C7.87762 8.054 10.0306 6.5 12.5501 6.5C14.0796 6.5 15.4711 7.077 16.5306 8.0195L19.3591 5.191C17.5731 3.5265 15.1841 2.5 12.5501 2.5C8.70913 2.5 5.37812 4.6685 3.70312 7.8455Z" fill="#FF3D00"/>
<path d="M12.5431 22.5C15.1261 22.5 17.4731 21.5115 19.2476 19.904L16.1526 17.285C15.1149 18.0742 13.8469 18.501 12.5431 18.5C9.94213 18.5 7.73362 16.8415 6.90162 14.527L3.64062 17.0395C5.29562 20.278 8.65663 22.5 12.5431 22.5Z" fill="#4CAF50"/>
<path d="M22.3524 10.5415H21.5469V10.5H12.5469V14.5H18.1984C17.804 15.6082 17.0936 16.5766 16.1549 17.2855L16.1564 17.2845L19.2514 19.9035C19.0324 20.1025 22.5469 17.5 22.5469 12.5C22.5469 11.8295 22.4779 11.175 22.3524 10.5415Z" fill="#1976D2"/>
</svg>
